<svg width="62" height="87" viewBox="0 0 62 87" fill="none" xmlns="http://www.w3.org/2000/svg">
<rect x="1.5" y="1.5" width="43" height="70" rx="5.5" stroke="black" stroke-width="3"/>
<rect x="14" width="18" height="6" rx="2" fill="black"/>
<rect x="30" y="55" width="32" height="32" rx="16" fill="black"/>
<path d="M41.0607 63.9393C40.4749 63.3536 39.5251 63.3536 38.9393 63.9393C38.3536 64.5251 38.3536 65.4749 38.9393 66.0607L41.0607 63.9393ZM50.9393 78.0607C51.5251 78.6464 52.4749 78.6464 53.0607 78.0607C53.6464 77.4749 53.6464 76.5251 53.0607 75.9393L50.9393 78.0607ZM38.9393 66.0607L50.9393 78.0607L53.0607 75.9393L41.0607 63.9393L38.9393 66.0607Z" fill="#ECEFFF"/>
<path d="M50.9393 63.9393C51.5251 63.3536 52.4749 63.3536 53.0607 63.9393C53.6464 64.5251 53.6464 65.4749 53.0607 66.0607L50.9393 63.9393ZM41.0607 78.0607C40.4749 78.6464 39.5251 78.6464 38.9393 78.0607C38.3536 77.4749 38.3536 76.5251 38.9393 75.9393L41.0607 78.0607ZM53.0607 66.0607L41.0607 78.0607L38.9393 75.9393L50.9393 63.9393L53.0607 66.0607Z" fill="#ECEFFF"/>
</svg>
