<svg width="32" height="32" viewBox="0 0 32 32" fill="none" xmlns="http://www.w3.org/2000/svg">
  <circle cx="16" cy="16" r="16" fill="white"/>
  <mask id="mask0_4973_10659" style="mask-type:alpha" maskUnits="userSpaceOnUse" x="9" y="9" width="15" height="15">
    <path d="M23.4031 9.07495H9.07471V23.4033H23.4031V9.07495Z" fill="white"/>
  </mask>
  <g mask="url(#mask0_4973_10659)">
    <rect x="23.4048" y="23.3104" width="14.5097" height="14.2377" transform="rotate(-180 23.4048 23.3104)" fill="white"/>
  </g>
  <g clip-path="url(#clip0_4973_10659)">
    <rect width="14.3284" height="14.3284" transform="translate(9.07471 9.07495)" fill="white"/>
    <path d="M9.81139 9.20279L16.5434 15.9349C16.6233 16.0155 16.6681 16.1243 16.6681 16.2378C16.6681 16.3513 16.6233 16.4602 16.5434 16.5408C16.5022 16.5833 16.4526 16.6166 16.3976 16.6386C16.3427 16.6605 16.2837 16.6707 16.2245 16.6683H9.50525C9.4486 16.6688 9.3924 16.6579 9.33998 16.6364C9.28755 16.6149 9.23994 16.5832 9.19987 16.5432C9.15981 16.5031 9.12811 16.4555 9.10662 16.4031C9.08514 16.3506 9.07429 16.2945 9.07472 16.2378V9.50256C9.07529 9.41745 9.10108 9.33442 9.14882 9.26396C9.19656 9.19351 9.26412 9.13878 9.34296 9.1067C9.42179 9.07462 9.50838 9.06663 9.59175 9.08373C9.67513 9.10084 9.75155 9.14226 9.81139 9.20279Z" fill="black"/>
    <path d="M22.6663 23.2726L15.9342 16.5406C15.8544 16.4599 15.8096 16.3511 15.8096 16.2376C15.8096 16.1241 15.8544 16.0153 15.9342 15.9346C15.9762 15.8935 16.0262 15.8613 16.081 15.8399C16.1358 15.8185 16.1943 15.8085 16.2531 15.8103H22.9884C23.1017 15.8103 23.2104 15.8553 23.2905 15.9354C23.3707 16.0156 23.4157 16.1243 23.4157 16.2376V22.9728C23.4161 23.0292 23.4054 23.0851 23.3841 23.1374C23.3628 23.1896 23.3314 23.2371 23.2916 23.2771C23.2519 23.3171 23.2047 23.3489 23.1526 23.3705C23.1006 23.3922 23.0447 23.4034 22.9884 23.4034C22.9291 23.4043 22.8703 23.3932 22.8155 23.3708C22.7607 23.3483 22.711 23.3149 22.6695 23.2726" fill="black"/>
    <path d="M16.5435 16.5406L9.81144 23.2727C9.77004 23.3151 9.72039 23.3486 9.66554 23.3711C9.61069 23.3936 9.55181 23.4046 9.49254 23.4034C9.43588 23.4038 9.37971 23.393 9.32728 23.3715C9.27486 23.35 9.22722 23.3183 9.18716 23.2783C9.1471 23.2382 9.11541 23.1906 9.09393 23.1381C9.07244 23.0857 9.0616 23.0295 9.06202 22.9729V16.2376C9.06202 16.1813 9.07317 16.1254 9.09484 16.0734C9.11652 16.0213 9.14829 15.9741 9.18831 15.9343C9.22833 15.8946 9.27581 15.8632 9.32802 15.8419C9.38024 15.8206 9.43615 15.8099 9.49254 15.8103H16.2406C16.3267 15.8067 16.4118 15.8292 16.4849 15.8749C16.558 15.9206 16.6156 15.9873 16.6501 16.0663C16.6846 16.1452 16.6944 16.2328 16.6782 16.3175C16.662 16.4021 16.6206 16.4799 16.5595 16.5406" fill="black"/>
    <path d="M9.20202 22.67L15.9341 15.938C15.9753 15.8955 16.025 15.8622 16.0799 15.8402C16.1349 15.8182 16.1939 15.808 16.253 15.8104C16.3663 15.8104 16.475 15.8554 16.5552 15.9356C16.6353 16.0157 16.6803 16.1244 16.6803 16.2377V22.973C16.6807 23.0294 16.67 23.0853 16.6487 23.1375C16.6274 23.1897 16.596 23.2372 16.5563 23.2772C16.5166 23.3172 16.4693 23.349 16.4173 23.3707C16.3652 23.3923 16.3094 23.4035 16.253 23.4035H9.50499C9.44846 23.404 9.39242 23.393 9.34032 23.371C9.28822 23.3491 9.24116 23.3167 9.20202 23.2759C9.16172 23.2364 9.1297 23.1893 9.10784 23.1373C9.08598 23.0853 9.07471 23.0294 9.07471 22.973C9.07471 22.9165 9.08598 22.8607 9.10784 22.8087C9.1297 22.7566 9.16172 22.7095 9.20202 22.67Z" fill="black"/>
    <path d="M15.935 15.9347L22.667 9.20266C22.7087 9.16081 22.7585 9.1279 22.8133 9.10597C22.8681 9.08403 22.9269 9.07353 22.9859 9.0751C23.042 9.0751 23.0976 9.08615 23.1495 9.10763C23.2013 9.12911 23.2484 9.16059 23.2881 9.20027C23.3278 9.23995 23.3593 9.28706 23.3807 9.33891C23.4022 9.39075 23.4133 9.44632 23.4133 9.50244V16.2377C23.4137 16.2941 23.4029 16.35 23.3816 16.4022C23.3604 16.4544 23.329 16.5019 23.2892 16.5419C23.2495 16.5819 23.2023 16.6137 23.1502 16.6354C23.0981 16.657 23.0423 16.6682 22.9859 16.6682H16.2411C16.155 16.6709 16.0701 16.6476 15.9974 16.6015C15.9246 16.5554 15.8674 16.4885 15.8331 16.4095C15.7987 16.3306 15.7889 16.2431 15.8048 16.1585C15.8206 16.0738 15.8616 15.9959 15.9222 15.9347" fill="black"/>
    <path d="M23.2789 9.80872L16.5468 16.5408C16.5047 16.5821 16.4548 16.6146 16.4001 16.6365C16.3454 16.6584 16.2868 16.6692 16.2279 16.6684C16.1712 16.6688 16.1151 16.6579 16.0626 16.6364C16.0102 16.615 15.9626 16.5833 15.9225 16.5432C15.8825 16.5031 15.8508 16.4555 15.8293 16.4031C15.8078 16.3507 15.797 16.2945 15.7974 16.2378V9.50258C15.7974 9.44619 15.8085 9.39036 15.8302 9.33831C15.8519 9.28625 15.8836 9.239 15.9237 9.19927C15.9637 9.15955 16.0112 9.12814 16.0634 9.10686C16.1156 9.08557 16.1715 9.07482 16.2279 9.07525H22.9631C23.022 9.07307 23.0806 9.08298 23.1355 9.10437C23.1903 9.12577 23.2402 9.15818 23.282 9.19961C23.3621 9.28077 23.407 9.39018 23.407 9.50417C23.407 9.61816 23.3621 9.72756 23.282 9.80872" fill="black"/>
  </g>
  <defs>
    <clipPath id="clip0_4973_10659">
      <rect width="14.3284" height="14.3284" fill="white" transform="translate(9.07471 9.07495)"/>
    </clipPath>
  </defs>
</svg>
